<?xml version="1.0" standalone="no"?>
<!DOCTYPE svg PUBLIC "-//W3C//DTD SVG 20010904//EN"
 "http://www.w3.org/TR/2001/REC-SVG-20010904/DTD/svg10.dtd">
<svg version="1.0" xmlns="http://www.w3.org/2000/svg"
 width="200.000000pt" height="200.000000pt" viewBox="0 0 200.000000 200.000000"
 preserveAspectRatio="xMidYMid meet">
<metadata>
Created by potrace 1.14, written by Peter Selinger 2001-2017
</metadata>
<g transform="translate(0.000000,200.000000) scale(0.100000,-0.100000)"
fill="#000000" stroke="none">
<path d="M896 1789 c-50 -12 -148 -64 -177 -95 -36 -39 -15 -38 40 1 70 51
149 76 237 77 94 0 166 -22 237 -72 64 -44 67 -46 66 -27 -1 28 -120 98 -199
116 -54 13 -150 12 -204 0z"/>
<path d="M907 1646 c-57 -21 -121 -66 -109 -78 6 -6 25 1 53 21 49 35 127 53
185 44 41 -6 128 -46 139 -63 9 -14 25 -13 25 3 0 15 -58 55 -107 73 -49 17
-137 17 -186 0z"/>
<path d="M921 1499 c-47 -29 -27 -45 24 -19 49 25 61 25 110 0 47 -24 45 -24
45 -5 0 43 -121 59 -179 24z"/>
<path d="M622 1388 c-17 -17 -17 -509 0 -526 8 -8 58 -12 160 -12 l148 0 0
-55 c0 -52 -1 -55 -25 -55 -14 0 -25 -4 -25 -10 0 -6 48 -10 125 -10 77 0 125
4 125 10 0 6 -11 10 -25 10 -24 0 -25 3 -25 55 l0 55 150 0 c137 0 150 2 160
19 6 12 10 113 10 260 0 204 -2 242 -16 255 -13 14 -62 16 -383 16 -272 0
-370 -3 -379 -12z m753 -263 l0 -250 -372 -3 -373 -2 0 248 c0 137 3 252 7
255 4 4 171 6 372 5 l366 -3 0 -250z m-315 -330 l0 -55 -55 0 -55 0 0 55 0 55
55 0 55 0 0 -55z"/>
<path d="M996 1129 c-32 -78 -54 -144 -51 -147 3 -3 7 -3 9 -1 3 3 47 109 113
277 3 6 1 12 -5 12 -5 0 -35 -64 -66 -141z"/>
<path d="M787 1178 c-73 -41 -86 -53 -75 -63 25 -23 168 -96 168 -86 0 6 -34
29 -76 52 l-76 42 58 33 c71 39 101 60 94 67 -3 3 -45 -18 -93 -45z"/>
<path d="M1120 1216 c0 -2 35 -23 77 -46 87 -48 88 -44 -19 -102 -32 -17 -55
-35 -52 -40 3 -5 20 0 37 10 18 11 58 34 90 51 31 18 57 34 57 36 0 2 -38 24
-84 49 -75 42 -106 54 -106 42z"/>
<path d="M324 549 c-63 -18 -100 -91 -84 -165 28 -122 192 -140 242 -26 50
113 -43 225 -158 191z m117 -48 c24 -25 29 -37 29 -80 0 -42 -5 -56 -29 -83
-25 -28 -36 -33 -75 -33 -58 0 -95 33 -103 93 -11 81 30 132 105 132 35 0 49
-6 73 -29z"/>
<path d="M110 540 c0 -5 9 -10 21 -10 20 0 20 -4 17 -141 -3 -132 -4 -142 -25
-159 -26 -21 -29 -30 -9 -30 8 0 24 12 35 26 19 24 21 40 21 165 0 117 2 139
15 139 8 0 15 5 15 10 0 6 -20 10 -45 10 -25 0 -45 -4 -45 -10z"/>
<path d="M530 540 c0 -5 7 -10 15 -10 12 0 15 -22 17 -120 3 -128 21 -171 26
-62 l3 62 79 0 80 0 0 -60 0 -60 31 0 c17 0 28 4 24 10 -3 6 -13 10 -21 10
-11 0 -14 22 -14 120 l0 120 -30 0 c-16 0 -30 -4 -30 -10 0 -5 9 -10 20 -10
17 0 20 -7 20 -50 l0 -50 -80 0 -80 0 0 60 0 60 -30 0 c-16 0 -30 -4 -30 -10z"/>
<path d="M830 540 c0 -5 7 -10 15 -10 13 0 15 -21 15 -125 0 -158 18 -168 22
-13 l3 112 86 -109 c47 -61 89 -110 95 -110 5 0 10 54 12 123 2 99 5 122 17
122 8 0 15 5 15 10 0 6 -20 10 -45 10 -25 0 -45 -4 -45 -10 0 -5 7 -10 15 -10
12 0 15 -17 15 -95 0 -52 -2 -95 -4 -95 -3 0 -41 47 -86 105 -64 82 -87 105
-106 105 -13 0 -24 -4 -24 -10z"/>
<path d="M1305 540 c3 -5 13 -10 21 -10 11 0 14 -23 14 -125 0 -158 18 -168
22 -13 l3 113 48 -68 c26 -37 52 -67 57 -67 4 0 30 30 57 66 l48 66 3 -106 3
-106 30 0 c18 0 28 4 24 10 -3 6 -13 10 -21 10 -11 0 -14 21 -14 110 0 89 3
110 14 110 8 0 18 5 21 10 4 6 -6 10 -24 10 -26 0 -37 -10 -83 -75 -29 -41
-55 -75 -58 -75 -3 0 -29 34 -58 75 -46 65 -57 75 -83 75 -18 0 -28 -4 -24
-10z"/>
<path d="M1660 525 c0 -14 5 -25 10 -25 6 0 10 7 10 15 0 11 12 15 45 15 l45
0 0 -125 c0 -77 4 -125 10 -125 6 0 10 48 10 125 l0 125 45 0 c33 0 45 -4 45
-15 0 -8 5 -15 10 -15 6 0 10 11 10 25 l0 25 -120 0 -120 0 0 -25z"/>
<path d="M1150 380 c0 -5 24 -10 54 -10 30 0 58 5 61 10 4 6 -17 10 -54 10
-34 0 -61 -4 -61 -10z"/>
</g>
</svg>
